<svg xmlns="http://www.w3.org/2000/svg" width="399" height="246" viewBox="0 0 399 246">
    <g fill="none" fill-rule="evenodd">
        <path fill="#E7F4FF" d="M-149-161h729v639h-729z"/>
        <g>
            <rect width="399" height="246" fill="#FFF" rx="15"/>
            <rect width="58" height="18" x="208" y="142" fill="#5D88FC" opacity=".2" rx="9"/>
            <rect width="58" height="18" x="120" y="142" fill="#5D88FC" opacity=".2" rx="9"/>
            <rect width="58" height="18" x="33" y="142" fill="#5D88FC" opacity=".2" rx="9"/>
            <g fill="#5D88FC" opacity=".058">
                <path d="M347.235 224.023h-40.47c-3.729 0-6.765-3.038-6.765-6.769V188.77c0-3.731 3.036-6.769 6.765-6.769h40.47c3.729 0 6.765 3.038 6.765 6.769v28.485c0 3.731-3.036 6.769-6.765 6.769zm-40.47-36.02a.763.763 0 0 0-.765.766v28.485c0 .423.339.765.765.765h40.47a.765.765 0 0 0 .765-.765V188.77a.765.765 0 0 0-.765-.766h-40.47z"/>
                <path d="M329.724 224.023h-4.267c-3.559 0-6.457-3.038-6.457-6.769V188.77c0-3.731 2.898-6.769 6.457-6.769h21.45c3.559 0 6.457 3.038 6.457 6.769v4.472c0 3.731-2.898 6.769-6.458 6.769h-9.994c-.407 0-.73.342-.73.765v16.48c0 3.73-2.898 6.768-6.458 6.768zm-4.267-36.02c-.406 0-.73.342-.73.766v28.485c0 .423.324.765.73.765h4.267c.404 0 .73-.342.73-.765v-16.479c0-3.73 2.899-6.769 6.458-6.769h9.994c.404 0 .73-.342.73-.765v-4.472c0-.424-.326-.766-.73-.766h-21.449z"/>
                <path d="M348.182 213.864h-14.727c-1.358 0-2.455-1.314-2.455-2.932 0-1.619 1.097-2.932 2.455-2.932h14.727c1.357 0 2.454 1.313 2.454 2.932 0 1.618-1.097 2.932-2.454 2.932M319.76 199.864h-16.937c-1.561 0-2.823-1.314-2.823-2.932 0-1.619 1.262-2.932 2.823-2.932h16.936c1.561 0 2.823 1.313 2.823 2.932 0 1.618-1.262 2.932-2.823 2.932M320.618 212.864h-17.673a2.938 2.938 0 0 1-2.945-2.932 2.938 2.938 0 0 1 2.945-2.932h17.673a2.938 2.938 0 0 1 2.946 2.932 2.938 2.938 0 0 1-2.946 2.932"/>
            </g>
            <rect width="58" height="7" x="79" y="192" fill="#5D88FC" opacity=".191" rx="3.5"/>
            <rect width="32" height="7" x="36" y="192" fill="#5D88FC" opacity=".191" rx="3.5"/>
            <rect width="32" height="7" x="36" y="207" fill="#5D88FC" opacity=".191" rx="3.5"/>
            <rect width="54" height="18" x="300" y="28" fill="#5D88FC" opacity=".2" rx="9"/>
            <circle cx="69" cy="70" r="34" fill="#5D88FC" opacity=".228"/>
            <circle cx="111" cy="70" r="33" fill="#5D88FC" opacity=".228"/>
        </g>
    </g>
</svg>
