<svg width="185" height="172" viewBox="0 0 185 172" version="1.1" xmlns="http://www.w3.org/2000/svg" xmlns:xlink="http://www.w3.org/1999/xlink">
<title>Slice</title>
<desc>Created using Figma</desc>
<g id="Canvas" transform="translate(-552 -1289)">
<clipPath id="clip-0" clip-rule="evenodd">
<path d="M 320 1085L 1888 1085L 1888 2108L 320 2108L 320 1085Z" fill="#FFFFFF"/>
</clipPath>
<g id="Frame" clip-path="url(#clip-0)">
<path d="M 320 1085L 1888 1085L 1888 2108L 320 2108L 320 1085Z" fill="#FFFFFF"/>
<g id="icon">
<g id="Rectangle 5 Copy 5" opacity="0.4">
<use xlink:href="#path0_fill" transform="translate(554 1296)" fill="#5D88FC"/>
</g>
<g id="mask 2">
<g id="Vector">
<use xlink:href="#path1_fill" transform="translate(583 1305)" fill="#FFFFFF"/>
</g>
</g>
<g id="Mask" opacity="0.406658">
<use xlink:href="#path1_fill" transform="translate(583 1305)" fill="#5D88FC"/>
</g>
<g id="Rectangle 5 Copy 5" opacity="0.2">
<use xlink:href="#path2_fill" transform="translate(568 1305)" fill="#5D88FC"/>
</g>
<g id="Rectangle 5">
<use xlink:href="#path3_fill" transform="translate(582 1327)" fill="#5E7BF3"/>
</g>
<g id="Rectangle 5">
<g id="Vector">
<use xlink:href="#path4_fill" transform="translate(581 1336)" fill="#FFFFFF"/>
</g>
<g id="Vector">
<use xlink:href="#path5_stroke" transform="translate(583 1338)" fill="#243562"/>
</g>
</g>
<g id="Line">
<use xlink:href="#path6_stroke" transform="translate(586 1362)" fill="#243562"/>
</g>
<g id="Rectangle 6">
<mask id="mask0_outline_ins">
<use xlink:href="#path7_fill" fill="white" transform="translate(594 1372)"/>
</mask>
<g mask="url(#mask0_outline_ins)">
<use xlink:href="#path8_stroke_2x" transform="translate(594 1372)" fill="#7F8CAF"/>
</g>
</g>
<g id="Shape">
<use xlink:href="#path9_fill" transform="matrix(-1.83697e-16 1 -1 -1.83697e-16 624 1379)" fill="#7F8CAF"/>
</g>
<g id="Oval" opacity="0.5">
<use xlink:href="#path10_fill" transform="translate(634 1379)" fill="#7F8CAF"/>
</g>
<g id="Oval" opacity="0.5">
<use xlink:href="#path10_fill" transform="translate(634 1375)" fill="#7F8CAF"/>
</g>
<g id="Oval" opacity="0.5">
<use xlink:href="#path10_fill" transform="translate(634 1383)" fill="#7F8CAF"/>
</g>
<g id="Oval" opacity="0.5">
<use xlink:href="#path10_fill" transform="translate(634 1387)" fill="#7F8CAF"/>
</g>
<g id="Oval" opacity="0.5">
<use xlink:href="#path10_fill" transform="translate(634 1391)" fill="#7F8CAF"/>
</g>
<g id="Oval" opacity="0.5">
<use xlink:href="#path10_fill" transform="translate(634 1395)" fill="#7F8CAF"/>
</g>
<g id="Oval" opacity="0.5">
<use xlink:href="#path10_fill" transform="translate(634 1399)" fill="#7F8CAF"/>
</g>
<g id="Shape">
<use xlink:href="#path11_fill" transform="translate(640 1382)" fill="#FD2766"/>
</g>
<g id="Rectangle path">
<use xlink:href="#path12_fill" transform="translate(644 1382)" fill="#FD2766"/>
</g>
<g id="Oval 12" opacity="0.847656">
<use xlink:href="#path13_fill" transform="translate(593 1347.5)" fill="#5D88FC"/>
</g>
<g id="Oval 12 Copy" opacity="0.847656">
<use xlink:href="#path13_fill" transform="translate(606 1347.5)" fill="#5D88FC"/>
</g>
<g id="Oval 12 Copy 2" opacity="0.847656">
<use xlink:href="#path13_fill" transform="translate(618 1347.5)" fill="#5D88FC"/>
</g>
<g id="Rectangle 22 Copy">
<use xlink:href="#path14_fill" transform="translate(594 1414)" fill="#FD2766"/>
</g>
<g id="Rectangle 22" opacity="0.5">
<use xlink:href="#path15_fill" transform="translate(666 1375)" fill="#5D88FC"/>
</g>
<g id="Rectangle 22" opacity="0.8">
<use xlink:href="#path16_fill" transform="translate(691 1375)" fill="#5D88FC"/>
</g>
<g id="Rectangle 22 Copy 2" opacity="0.6">
<use xlink:href="#path17_fill" transform="translate(666 1403)" fill="#5F7CF4"/>
</g>
<g id="Rectangle 22 Copy 3" opacity="0.6">
<use xlink:href="#path17_fill" transform="translate(666 1413)" fill="#5F7CF4"/>
</g>
<g id="Rectangle 22 Copy 4" opacity="0.6">
<use xlink:href="#path17_fill" transform="translate(666 1423)" fill="#5F7CF4"/>
</g>
</g>
</g>
</g>
<defs>
<path id="path0_fill" d="M 15 7.5C 15 3.35786 11.6421 0 7.5 0C 3.35786 0 0 3.35786 0 7.5C 0 11.6421 3.35786 15 7.5 15C 11.6421 15 15 11.6421 15 7.5Z"/>
<path id="path1_fill" d="M 149 74.5C 149 33.3548 115.645 0 74.5 0C 33.3548 0 0 33.3548 0 74.5C 0 115.645 33.3548 149 74.5 149C 115.645 149 149 115.645 149 74.5Z"/>
<path id="path2_fill" d="M 67 33.5C 67 14.9985 52.0015 0 33.5 0C 14.9985 0 0 14.9985 0 33.5C 0 52.0015 14.9985 67 33.5 67C 52.0015 67 67 52.0015 67 33.5Z"/>
<path id="path3_fill" fill-rule="evenodd" d="M 15.9692 0L 148 0C 150.761 0 153 2.23858 153 5L 153 104.052L 142 114L 3 114L 0 11.4563L 12.8302 1.10812C 13.7192 0.391059 14.827 0 15.9692 0Z"/>
<path id="path4_fill" d="M 5 0L 138 0C 140.761 0 143 2.23858 143 5L 143 105L 0 105L 0 5C 0 2.23858 2.23858 0 5 0Z"/>
<path id="path5_stroke" d="M 0 101L -2 101L -2 103L 0 103L 0 101ZM 139 101L 139 103L 141 103L 141 101L 139 101ZM 0 103L 139 103L 139 99L 0 99L 0 103ZM 141 101L 141 3L 137 3L 137 101L 141 101ZM 141 3C 141 0.238576 138.761 -2 136 -2L 136 2C 136.552 2 137 2.44772 137 3L 141 3ZM 136 -2L 3 -2L 3 2L 136 2L 136 -2ZM 3 -2C 0.238576 -2 -2 0.238576 -2 3L 2 3C 2 2.44772 2.44772 2 3 2L 3 -2ZM -2 3L -2 101L 2 101L 2 3L -2 3Z"/>
<path id="path6_stroke" d="M 0 -2L -2 -2L -2 2L 0 2L 0 -2ZM 136 2L 138 2L 138 -2L 136 -2L 136 2ZM 0 2L 136 2L 136 -2L 0 -2L 0 2Z"/>
<path id="path7_fill" d="M 48.8421 0L 9.1579 0C 4.10013 0 0 4.29807 0 9.6L 0 22.4C 0 27.7019 4.10013 32 9.1579 32L 48.8421 32C 53.8999 32 58 27.7019 58 22.4L 58 9.6C 58 4.29807 53.8999 0 48.8421 0Z"/>
<path id="path8_stroke_2x" d="M 9.1579 3L 48.8421 3L 48.8421 -3L 9.1579 -3L 9.1579 3ZM 48.8421 3C 52.1113 3 55 5.82006 55 9.6L 61 9.6C 61 2.77607 55.6884 -3 48.8421 -3L 48.8421 3ZM 55 9.6L 55 22.4L 61 22.4L 61 9.6L 55 9.6ZM 55 22.4C 55 26.1799 52.1113 29 48.8421 29L 48.8421 35C 55.6884 35 61 29.2239 61 22.4L 55 22.4ZM 48.8421 29L 9.1579 29L 9.1579 35L 48.8421 35L 48.8421 29ZM 9.1579 29C 5.8887 29 3 26.1799 3 22.4L -3 22.4C -3 29.2239 2.31156 35 9.1579 35L 9.1579 29ZM 3 22.4L 3 9.6L -3 9.6L -3 22.4L 3 22.4ZM 3 9.6C 3 5.82006 5.8887 3 9.1579 3L 9.1579 -3C 2.31156 -3 -3 2.77607 -3 9.6L 3 9.6Z"/>
<path id="path9_fill" d="M 18.6138 14.7956C 18.7168 14.8229 18.8069 14.8092 18.8841 14.7548C 18.9614 14.7003 19 14.6185 19 14.5095L 19 13.0382C 19 12.7656 18.8841 12.5477 18.6524 12.3842L 11.4309 7.84741C 11.1992 7.71115 11.0833 7.49314 11.0833 7.19347L 11.0833 2.08447C 11.0833 1.81198 11.0319 1.55313 10.9289 1.3079C 10.6457 0.544943 10.2466 0.122615 9.73171 0.0408707C 9.65447 0.0136092 9.57724 0 9.5 0C 9.42276 0 9.33267 0.0136092 9.22967 0.0408707C 9.20392 0.0408707 9.17175 0.0476995 9.13313 0.0613098C 9.09451 0.0749202 9.04945 0.0953505 8.99797 0.122612C 8.81774 0.177094 8.65041 0.299714 8.49593 0.490463C 8.34146 0.681213 8.22561 0.858309 8.14837 1.0218L 8.03252 1.3079C 7.95528 1.55313 7.91667 1.81198 7.91667 2.08447L 7.91667 7.19347C 7.91667 7.49318 7.80081 7.71119 7.56911 7.84741L 0.34756 12.3842C 0.115852 12.5477 0 12.7656 0 13.0382L 0 14.5095C 0 14.6185 0.0386187 14.7003 0.115854 14.7548C 0.19309 14.8092 0.283186 14.8229 0.38618 14.7956L 7.53049 12.3433C 7.63348 12.2888 7.72358 12.2956 7.80081 12.3638C 7.87805 12.4319 7.91667 12.5204 7.91667 12.6294L 7.91667 16.594C 7.91667 16.8938 7.81367 17.1253 7.60772 17.2888L 6.64228 18.0245C 6.43633 18.188 6.33333 18.4196 6.33333 18.7194L 6.33333 19.7003C 6.33333 19.8092 6.37195 19.891 6.44919 19.9455C 6.52642 20 6.61652 20.0136 6.71951 19.9864L 9.11382 19.2507C 9.37129 19.1689 9.62871 19.1689 9.88618 19.2507L 12.2805 19.9864C 12.3835 20.0136 12.4736 20 12.5508 19.9455C 12.6281 19.891 12.6667 19.8092 12.6667 19.7003L 12.6667 18.7194C 12.6667 18.4196 12.5637 18.188 12.3577 18.0245L 11.3923 17.2888C 11.1863 17.1253 11.0833 16.8938 11.0833 16.594L 11.0833 12.6294C 11.0833 12.4932 11.1219 12.3978 11.1992 12.3433C 11.2764 12.2888 11.3665 12.2888 11.4695 12.3433L 18.6138 14.7956Z"/>
<path id="path10_fill" d="M 1 2C 1.55228 2 2 1.55228 2 1C 2 0.447715 1.55228 0 1 0C 0.447715 0 0 0.447715 0 1C 0 1.55228 0.447715 2 1 2Z"/>
<path id="path11_fill" fill-rule="evenodd" d="M 1 0C 1.55228 0 2 0.447715 2 1L 2 10C 2 10.5523 1.55228 11 1 11C 0.447715 11 0 10.5523 0 10L 0 1C 0 0.447715 0.447715 0 1 0Z"/>
<path id="path12_fill" d="M 2 1C 2 0.447715 1.55228 0 1 0C 0.447715 0 0 0.447715 0 1L 0 10C 0 10.5523 0.447715 11 1 11C 1.55228 11 2 10.5523 2 10L 2 1Z"/>
<path id="path13_fill" d="M 3 6C 4.65685 6 6 4.65685 6 3C 6 1.34315 4.65685 0 3 0C 1.34315 0 0 1.34315 0 3C 0 4.65685 1.34315 6 3 6Z"/>
<path id="path14_fill" d="M 49.5 0L 7.5 0C 3.35786 0 0 3.35786 0 7.5C 0 11.6421 3.35786 15 7.5 15L 49.5 15C 53.6421 15 57 11.6421 57 7.5C 57 3.35786 53.6421 0 49.5 0Z"/>
<path id="path15_fill" d="M 47 0L 0 0L 0 22L 47 22L 47 0Z"/>
<path id="path16_fill" d="M 22 0L 0 0L 0 22L 22 22L 22 0Z"/>
<path id="path17_fill" d="M 47 0L 0 0L 0 4L 47 4L 47 0Z"/>
</defs>
</svg>
