<svg width="185" height="172" viewBox="0 0 185 172" version="1.1" xmlns="http://www.w3.org/2000/svg" xmlns:xlink="http://www.w3.org/1999/xlink">
<title>Slice 2</title>
<desc>Created using Figma</desc>
<g id="Canvas" transform="translate(122 -989)">
<g id="Group 3">
<g id="icon">
<g id="Rectangle 5 Copy 7">
<use xlink:href="#path0_fill" transform="translate(-112 1005)" fill="#4C65CA"/>
</g>
<g id="Rectangle 5 Copy 7">
<use xlink:href="#path0_fill" transform="translate(-95 1013)" fill="#AEC3FD"/>
</g>
<g id="Rectangle 21 Copy" opacity="0.3">
<use xlink:href="#path1_fill" transform="matrix(-1.83697e-16 1 -1 -1.83697e-16 19 1047)" fill="#5F7DF4"/>
</g>
<g id="Rectangle 21" opacity="0.5">
<use xlink:href="#path2_fill" transform="translate(12 1051)" fill="#5F7DF4"/>
</g>
<g id="Rectangle 5 Copy 7" opacity="0.546059">
<use xlink:href="#path3_fill" transform="translate(-101 1049)" fill="#FFFFFF"/>
</g>
<g id="Rectangle 5 Copy 7" opacity="0.366371">
<use xlink:href="#path4_fill" transform="translate(27 1002)" fill="#5D88FC"/>
</g>
<g id="Rectangle 7">
<g id="Vector">
<use xlink:href="#path5_fill" transform="translate(-23 1117)" fill="#FFFFFF"/>
<mask id="mask0_outline_ins">
<use xlink:href="#path5_fill" fill="white" transform="translate(-23 1117)"/>
</mask>
<g mask="url(#mask0_outline_ins)">
<use xlink:href="#path6_stroke_2x" transform="translate(-23 1117)" fill="#658CF6"/>
</g>
</g>
</g>
<g id="Rectangle 7 Copy">
<g id="Vector">
<use xlink:href="#path7_fill" transform="translate(-58 1117)" fill="#FFFFFF" fill-opacity="0.676715"/>
</g>
<g id="Vector">
<use xlink:href="#path8_stroke" transform="translate(-56 1119)" fill="#658CF5"/>
</g>
</g>
<g id="Path 3">
<use xlink:href="#path9_stroke" transform="translate(-66 1109)" fill="#243562"/>
</g>
<g id="Oval 13">
<use xlink:href="#path10_fill" transform="translate(-74 1099)" fill="#FFFFFF"/>
<use xlink:href="#path11_stroke" transform="translate(-74 1099)" fill="#FD2766"/>
</g>
<g id="Oval 13 Copy">
<use xlink:href="#path10_fill" transform="translate(-51 1099)" fill="#FFFFFF"/>
<use xlink:href="#path11_stroke" transform="translate(-51 1099)" fill="#FD2766"/>
</g>
<g id="Oval 13 Copy 2">
<use xlink:href="#path12_fill" transform="translate(-28 1099)" fill="#FFFFFF"/>
<use xlink:href="#path13_stroke" transform="translate(-28 1099)" fill="#FD2766"/>
</g>
<g id="Oval 13 Copy 3">
<use xlink:href="#path14_fill" transform="translate(-5 1099)" fill="#FFFFFF"/>
<use xlink:href="#path15_stroke" transform="translate(-5 1099)" fill="#FD2766"/>
</g>
<g id="Path 5">
<use xlink:href="#path16_fill" transform="translate(-76.9989 1066)" fill="#FFFFFF"/>
<use xlink:href="#path17_stroke" transform="translate(-76.9989 1066)" fill="#FF2866"/>
</g>
<g id="Oval 7 Copy">
<use xlink:href="#path18_fill" transform="translate(-69 989)" fill="#6A86FA"/>
</g>
<g id="Oval 7">
<use xlink:href="#path19_fill" transform="translate(-57 995)" fill="#FFFFFF" fill-opacity="0.853685"/>
<use xlink:href="#path20_stroke" transform="translate(-57 995)" fill="#243562"/>
</g>
<g id="Oval 8">
<use xlink:href="#path21_fill" transform="translate(-40 1011)" fill="#FF2866"/>
</g>
<g id="Path 6">
<use xlink:href="#path22_stroke" transform="translate(-52 1073)" fill="#FD2766"/>
</g>
<g id="Path 6 Copy">
<use xlink:href="#path22_stroke" transform="matrix(-1 0 0 1 -5 1073)" fill="#FD2766"/>
</g>
<g id="Path 6 Copy 2">
<use xlink:href="#path23_stroke" transform="matrix(-1 0 0 1 -29.4656 1073.1)" fill="#FD2766"/>
</g>
<g id="Oval 14" opacity="0.732801">
<use xlink:href="#path24_stroke" transform="translate(35 1085)" fill="#5D88FC"/>
</g>
</g>
</g>
</g>
<defs>
<path id="path0_fill" d="M 148 74C 148 33.1309 114.869 0 74 0C 33.1309 0 0 33.1309 0 74C 0 114.869 33.1309 148 74 148C 114.869 148 148 114.869 148 74Z"/>
<path id="path1_fill" d="M 10 0L 1.5 0C 0.671573 0 0 0.671573 0 1.5C 0 2.32843 0.671573 3 1.5 3L 10 3C 10.8284 3 11.5 2.32843 11.5 1.5C 11.5 0.671573 10.8284 0 10 0Z"/>
<path id="path2_fill" d="M 9.5 0L 1.5 0C 0.671573 0 0 0.671573 0 1.5C 0 2.32843 0.671573 3 1.5 3L 9.5 3C 10.3284 3 11 2.32843 11 1.5C 11 0.671573 10.3284 0 9.5 0Z"/>
<path id="path3_fill" d="M 24 12C 24 5.37258 18.6274 0 12 0C 5.37258 0 0 5.37258 0 12C 0 18.6274 5.37258 24 12 24C 18.6274 24 24 18.6274 24 12Z"/>
<path id="path4_fill" d="M 19 9.5C 19 4.25329 14.7467 0 9.5 0C 4.25329 0 0 4.25329 0 9.5C 0 14.7467 4.25329 19 9.5 19C 14.7467 19 19 14.7467 19 9.5Z"/>
<path id="path5_fill" d="M 17 0L 4 0C 1.79086 0 0 2.02964 0 4.53333L 0 12.4667C 0 14.9704 1.79086 17 4 17L 17 17C 19.2091 17 21 14.9704 21 12.4667L 21 4.53333C 21 2.02964 19.2091 0 17 0Z"/>
<path id="path6_stroke_2x" d="M 4 3L 17 3L 17 -3L 4 -3L 4 3ZM 17 3C 17.1451 3 17.3558 3.05977 17.5789 3.31265C 17.8071 3.57123 18 3.99397 18 4.53333L 24 4.53333C 24 0.736669 21.2078 -3 17 -3L 17 3ZM 18 4.53333L 18 12.4667L 24 12.4667L 24 4.53333L 18 4.53333ZM 18 12.4667C 18 13.006 17.8071 13.4288 17.5789 13.6874C 17.3558 13.9402 17.1451 14 17 14L 17 20C 21.2078 20 24 16.2633 24 12.4667L 18 12.4667ZM 17 14L 4 14L 4 20L 17 20L 17 14ZM 4 14C 3.85491 14 3.64421 13.9402 3.42109 13.6874C 3.19293 13.4288 3 13.006 3 12.4667L -3 12.4667C -3 16.2633 -0.207842 20 4 20L 4 14ZM 3 12.4667L 3 4.53333L -3 4.53333L -3 12.4667L 3 12.4667ZM 3 4.53333C 3 3.99397 3.19293 3.57123 3.42109 3.31265C 3.64421 3.05977 3.85491 3 4 3L 4 -3C -0.207842 -3 -3 0.736669 -3 4.53333L 3 4.53333Z"/>
<path id="path7_fill" d="M 4 0L 21 0C 23.2091 0 25 1.79086 25 4L 25 33L 0 33L 0 4C 0 1.79086 1.79086 0 4 0Z"/>
<path id="path8_stroke" d="M 0 29L -2 29L -2 31L 0 31L 0 29ZM 21 29L 21 31L 23 31L 23 29L 21 29ZM 0 31L 21 31L 21 27L 0 27L 0 31ZM 23 29L 23 2L 19 2L 19 29L 23 29ZM 23 2C 23 -0.209138 21.2091 -2 19 -2L 19 2L 23 2ZM 19 -2L 2 -2L 2 2L 19 2L 19 -2ZM 2 -2C -0.209139 -2 -2 -0.209138 -2 2L 2 2L 2 -2ZM -2 2L -2 29L 2 29L 2 2L -2 2Z"/>
<path id="path9_stroke" d="M -2 0.049736L -2 37L 2 37L 2 0.049736L -2 0.049736ZM -2 37C -2 39.2091 -0.209139 41 2 41L 2 37L -2 37ZM 2 41L 72 41L 72 37L 2 37L 2 41ZM 72 41C 74.2091 41 76 39.2091 76 37L 72 37L 72 41ZM 76 37L 76 0L 72 0L 72 37L 76 37Z"/>
<path id="path10_fill" fill-rule="evenodd" d="M 0 0C 0 6.35127 5.14873 11.5 11.5 11.5C 17.8513 11.5 23 6.35127 23 0"/>
<path id="path11_stroke" d="M -2 0C -2 7.45584 4.04416 13.5 11.5 13.5L 11.5 9.5C 6.25329 9.5 2 5.24671 2 0L -2 0ZM 11.5 13.5C 18.9558 13.5 25 7.45584 25 0L 21 0C 21 5.24671 16.7467 9.5 11.5 9.5L 11.5 13.5Z"/>
<path id="path12_fill" fill-rule="evenodd" d="M 0 0C 0 6.35127 5.14873 11.5 11.5 11.5C 17.8513 11.5 23 6.35127 23 0"/>
<path id="path13_stroke" d="M -2 0C -2 7.45584 4.04416 13.5 11.5 13.5L 11.5 9.5C 6.25329 9.5 2 5.24671 2 0L -2 0ZM 11.5 13.5C 18.9558 13.5 25 7.45584 25 0L 21 0C 21 5.24671 16.7467 9.5 11.5 9.5L 11.5 13.5Z"/>
<path id="path14_fill" fill-rule="evenodd" d="M 0 0C 0 6.35127 5.14873 11.5 11.5 11.5C 17.8513 11.5 23 6.35127 23 0"/>
<path id="path15_stroke" d="M -2 0C -2 7.45584 4.04416 13.5 11.5 13.5L 11.5 9.5C 6.25329 9.5 2 5.24671 2 0L -2 0ZM 11.5 13.5C 18.9558 13.5 25 7.45584 25 0L 21 0C 21 5.24671 16.7467 9.5 11.5 9.5L 11.5 13.5Z"/>
<path id="path16_fill" fill-rule="evenodd" d="M 2.00001 32L 93.9979 32C 95.1024 32 95.9979 31.1046 95.9979 30C 95.9979 29.4953 95.8071 29.0093 95.4637 28.6394L 69.178 0.319702C 68.9888 0.115841 68.7232 0 68.4451 0L 27.7491 0C 27.4722 0 27.2078 0.114771 27.0187 0.316986L 0.53919 28.634C -0.215243 29.4408 -0.172801 30.7064 0.633986 31.4608C 1.00448 31.8073 1.49277 32 2.00001 32Z"/>
<path id="path17_stroke" d="M 95.4637 28.6394L 93.9979 30L 93.9979 30L 95.4637 28.6394ZM 69.178 0.319702L 67.7121 1.68029L 67.7121 1.68029L 69.178 0.319702ZM 27.0187 0.316986L 28.4795 1.68301L 28.4795 1.68301L 27.0187 0.316986ZM 0.53919 28.634L 2.00001 30L 2.00001 30L 0.53919 28.634ZM 0.633986 31.4608L -0.732037 32.9216L -0.732036 32.9216L 0.633986 31.4608ZM 2.00001 34L 93.9979 34L 93.9979 30L 2.00001 30L 2.00001 34ZM 93.9979 34C 96.207 34 97.9979 32.2091 97.9979 30L 93.9979 30L 93.9979 34ZM 97.9979 30C 97.963 29.1234 97.5004 27.945 96.9296 27.2788L 93.9979 30L 93.9979 30L 97.9979 30ZM 96.9296 27.2788L 70.6439 -1.04089L 67.7121 1.68029L 93.9979 30L 96.9296 27.2788ZM 70.6439 -1.04089C 70.0762 -1.65248 69.2795 -2 68.4451 -2L 68.4451 2C 68.1669 2 67.9014 1.88417 67.7121 1.68029L 70.6439 -1.04089ZM 68.4451 -2L 27.7491 -2L 27.7491 2L 68.4451 2L 68.4451 -2ZM 27.7491 -2C 26.9185 -2 26.1251 -1.65569 25.5579 -1.04904L 28.4795 1.68301C 28.2904 1.88523 28.0259 2 27.7491 2L 27.7491 -2ZM 25.5579 -1.04904L -0.921626 27.268L 2.00001 30L 28.4795 1.68301L 25.5579 -1.04904ZM -0.921625 27.268C -2.43049 28.8815 -2.34561 31.4128 -0.732037 32.9216L 2.00001 30L 2.00001 30L -0.921625 27.268ZM -0.732036 32.9216C -0.064511 33.4976 1.11903 33.9648 2.00001 34L 2.00001 30L 2.00001 30L -0.732036 32.9216Z"/>
<path id="path18_fill" fill-rule="evenodd" d="M 27 64L 39 65C 52.7131 48.4214 59.3667 36.5816 58.961 29.4805C 58.961 13.1989 45.7621 0 29.4805 0C 13.1989 0 0 13.1989 0 29.4805C 0 42.4593 9 53.9658 27 64Z"/>
<path id="path19_fill" fill-rule="evenodd" d="M 27.3983 61C 46.3531 50.661 55.4859 39.4605 54.7966 27.3983C 54.7966 12.2666 42.53 0 27.3983 0C 12.2666 0 0 12.2666 0 27.3983C 0 39.4605 9.13277 50.661 27.3983 61Z"/>
<path id="path20_stroke" d="M 27.3983 61L 26.4131 62.7405L 27.3803 63.288L 28.356 62.7558L 27.3983 61ZM 54.7966 27.3983L 52.7966 27.3983L 52.7966 27.4554L 52.7999 27.5124L 54.7966 27.3983ZM 28.356 62.7558C 47.4336 52.3498 57.554 40.5948 56.7934 27.2842L 52.7999 27.5124C 53.4178 38.3261 45.2726 48.9722 26.4406 59.2442L 28.356 62.7558ZM 56.7966 27.3983C 56.7966 11.1621 43.6345 -2 27.3983 -2L 27.3983 2C 41.4254 2 52.7966 13.3712 52.7966 27.3983L 56.7966 27.3983ZM 27.3983 -2C 11.1621 -2 -2 11.1621 -2 27.3983L 2 27.3983C 2 13.3712 13.3712 2 27.3983 2L 27.3983 -2ZM -2 27.3983C -2 40.5968 7.9944 52.3148 26.4131 62.7405L 28.3835 59.2595C 10.2711 49.0072 2 38.3241 2 27.3983L -2 27.3983Z"/>
<path id="path21_fill" d="M 10 20C 15.5228 20 20 15.5228 20 10C 20 4.47715 15.5228 0 10 0C 4.47715 0 0 4.47715 0 10C 0 15.5228 4.47715 20 10 20Z"/>
<path id="path22_stroke" d="M -1.37072 17.3908C -1.70717 18.1478 -1.36623 19.0343 -0.609208 19.3707C 0.147819 19.7072 1.03426 19.3662 1.37072 18.6092L -1.37072 17.3908ZM 9.37072 0.609208C 9.70717 -0.147819 9.36623 -1.03426 8.60921 -1.37072C 7.85218 -1.70717 6.96574 -1.36623 6.62928 -0.609208L 9.37072 0.609208ZM 1.37072 18.6092L 9.37072 0.609208L 6.62928 -0.609208L -1.37072 17.3908L 1.37072 18.6092Z"/>
<path id="path23_stroke" d="M -1.5 17.9845C -1.5 18.8129 -0.828427 19.4845 2.8125e-08 19.4845C 0.828427 19.4845 1.5 18.8129 1.5 17.9845L -1.5 17.9845ZM 1.5 -4.53125e-08C 1.5 -0.828427 0.828427 -1.5 2.8125e-08 -1.5C -0.828427 -1.5 -1.5 -0.828427 -1.5 -4.53125e-08L 1.5 -4.53125e-08ZM 1.5 17.9845L 1.5 -4.53125e-08L -1.5 -4.53125e-08L -1.5 17.9845L 1.5 17.9845Z"/>
<path id="path24_stroke" d="M 7.5 4.5C 7.5 6.15685 6.15685 7.5 4.5 7.5L 4.5 10.5C 7.81371 10.5 10.5 7.81371 10.5 4.5L 7.5 4.5ZM 4.5 7.5C 2.84315 7.5 1.5 6.15685 1.5 4.5L -1.5 4.5C -1.5 7.81371 1.18629 10.5 4.5 10.5L 4.5 7.5ZM 1.5 4.5C 1.5 2.84315 2.84315 1.5 4.5 1.5L 4.5 -1.5C 1.18629 -1.5 -1.5 1.18629 -1.5 4.5L 1.5 4.5ZM 4.5 1.5C 6.15685 1.5 7.5 2.84315 7.5 4.5L 10.5 4.5C 10.5 1.18629 7.81371 -1.5 4.5 -1.5L 4.5 1.5Z"/>
</defs>
</svg>
