<svg xmlns="http://www.w3.org/2000/svg" xmlns:xlink="http://www.w3.org/1999/xlink" width="363" height="297" viewBox="0 0 363 297">
    <defs>
        <path id="a" d="M11 55v64.008L52 142l34-22-1-41-39-22z"/>
    </defs>
    <g fill="none" fill-rule="evenodd">
        <g transform="translate(213)">
            <ellipse cx="75" cy="132" fill="#3A00FF" fill-opacity=".603" opacity=".52" rx="75" ry="33"/>
            <ellipse cx="73.5" cy="131.5" fill="#3A00FF" fill-opacity=".603" opacity=".325" rx="55.5" ry="24.5"/>
            <g transform="translate(30)">
                <use fill="#AEC3FD" xlink:href="#a"/>
                <path stroke="#243562" stroke-width="3" d="M9.5 53.412l36.933 2.11 40.046 22.59 1.041 42.691-35.465 22.948L9.5 119.886V53.412z"/>
            </g>
            <path fill="#FFF" fill-opacity=".77" d="M59.152 25.863a.807.807 0 0 0-.02-.048c-1.761-3.94-2.48-7.914-2.023-11.188.568-4.072 2.69-5.923 4.369-6.758 2.889-1.437 6.801-1.083 11.016.997 4.406 2.175 8.554 5.941 11.68 10.604 4.859 7.25 6.199 15.266 3.334 19.945-.22.359-14.26 19.585-14.26 19.585L59.152 25.863z"/>
            <path fill="#243562" d="M93.712 25.61c-.512-3.952-1.953-8.11-4.169-12.024-2.836-5.009-6.63-9.072-10.682-11.439-4.216-2.462-8.234-2.82-11.315-1.005-.262.154-3.665 2.103-5.836 3.4-2.56 1.54-4.153 4.39-4.607 8.249-.426 3.61.223 7.945 1.828 12.21a.514.514 0 0 0 .007.02l12.725 35.408a.959.959 0 0 0 .897.639.94.94 0 0 0 .474-.129l5.77-3.36a.965.965 0 0 0 .335-.328l12.525-20.367a9.89 9.89 0 0 0 .763-1.246c1.352-2.614 1.796-6.082 1.285-10.027zm-32.968-1.62a.875.875 0 0 0-.017-.048c-1.504-3.902-2.118-7.837-1.728-11.078.486-4.034 2.298-5.866 3.732-6.693 2.468-1.423 5.81-1.072 9.411.988 3.764 2.153 7.308 5.882 9.977 10.5 4.151 7.18 5.296 15.117 2.85 19.75-.189.356-12.183 19.394-12.183 19.394L60.744 23.99z"/>
            <path fill="#FE2765" d="M74.348 28.391c1.003-.592 1.559-1.795 1.564-3.386.005-1.494-.479-3.178-1.362-4.743-.883-1.564-2.068-2.835-3.335-3.577-1.35-.791-2.647-.9-3.65-.308-1.004.592-1.56 1.795-1.565 3.386-.005 1.494.479 3.178 1.362 4.743.884 1.564 2.068 2.835 3.336 3.577.777.455 1.536.685 2.231.685.514 0 .993-.125 1.419-.377z"/>
            <path stroke="#243562" stroke-width="3" d="M81.5 77v66.5"/>
            <path fill="#F1E8E8" stroke="#5D88FC" stroke-width="3" d="M47.615 97.01v15.173l15.904 8.914v-13.684"/>
            <path stroke="#243562" stroke-width="3" d="M41 55l40 23 35 2"/>
            <path fill="#D9DCE2" stroke="#5F89FC" stroke-width="3" d="M86.595 102.786v27.632l23.952-14.312V87.383z"/>
            <path fill="#FFF" fill-opacity=".713" stroke="#FE2765" stroke-width="3" d="M40 71L30 89l38 23 10-18z"/>
            <path stroke="#FE2765" stroke-linecap="round" stroke-width="3" d="M37 92l6.5-11.5M44.5 96.5l7-12M52.5 101.5l7-12M60.5 107.5l7-13"/>
            <path fill="#FFF" fill-opacity=".735" stroke="#FE2765" stroke-width="3" d="M87.058 102.456l4.999 7.528a2 2 0 0 0 2.739.582l18.456-11.735a4 4 0 0 0 1.537-4.936l-3.083-7.277-24.648 15.838z"/>
            <path fill="#FFF" stroke="#5F89FC" stroke-width="3" d="M44.554 64.184v3.552a1 1 0 0 0 .477.852l30.077 18.468a1 1 0 0 0 1.523-.852v-4.593a1 1 0 0 0-.499-.866L46.055 63.32a1 1 0 0 0-1.501.865z"/>
        </g>
        <g transform="translate(229 186)">
            <ellipse cx="32.5" cy="47" fill="#3A00FF" fill-opacity=".603" opacity=".52" rx="32.5" ry="14"/>
            <ellipse cx="32.5" cy="46" fill="#3A00FF" fill-opacity=".603" opacity=".52" rx="20.5" ry="9"/>
            <path fill="#FFF" fill-opacity=".746" d="M22.204 22.092c-.921-2.557-1.293-5.104-1.057-7.203.294-2.61 1.391-3.797 2.26-4.332 1.494-.921 3.517-.694 5.697.64 2.279 1.393 5.495 3.953 7.111 6.942 2.513 4.648 3.056 10.285 1.574 13.284l-.92-.644c-.114.23-7.375 12.554-7.375 12.554l-7.29-21.241z"/>
            <path fill="#243562" d="M42.396 23.21c-.312-2.425-1.19-4.975-2.54-7.376-1.728-3.073-4.039-5.565-6.507-7.017-2.569-1.51-5.016-1.73-6.893-.617-.16.095-2.233 1.29-3.555 2.086-1.56.945-2.53 2.693-2.807 5.06-.26 2.215.136 4.874 1.113 7.49a.317.317 0 0 0 .005.012l7.752 21.72a.585.585 0 0 0 .546.393.57.57 0 0 0 .289-.08l3.514-2.06a.59.59 0 0 0 .205-.202l7.63-12.494c.169-.235.325-.492.465-.764.823-1.603 1.094-3.73.783-6.15zm-20.084-.994a.54.54 0 0 0-.01-.03c-.917-2.393-1.29-4.807-1.053-6.795.296-2.474 1.4-3.598 2.274-4.106 1.503-.872 3.54-.657 5.733.606 2.293 1.321 4.451 3.609 6.078 6.442 2.528 4.404 3.226 9.273 1.735 12.115-.114.218-7.421 11.896-7.421 11.896l-7.336-20.128z"/>
            <path fill="#FE2765" d="M30.6 24.916c.61-.364.95-1.101.952-2.077.003-.917-.291-1.95-.83-2.91-.538-.96-1.26-1.739-2.032-2.194-.822-.485-1.612-.553-2.223-.19-.611.364-.95 1.102-.953 2.078-.003.916.292 1.95.83 2.91.538.96 1.26 1.739 2.032 2.194.473.28.935.42 1.36.42.312 0 .604-.077.863-.231z"/>
        </g>
        <g transform="translate(102 135)">
            <ellipse cx="32.5" cy="47" fill="#3A00FF" fill-opacity=".603" opacity=".52" rx="32.5" ry="14"/>
            <ellipse cx="32.5" cy="46" fill="#3A00FF" fill-opacity=".603" opacity=".52" rx="20.5" ry="9"/>
            <path fill="#FFF" fill-opacity=".746" d="M22.204 22.092c-.921-2.557-1.293-5.104-1.057-7.203.294-2.61 1.391-3.797 2.26-4.332 1.494-.921 3.517-.694 5.697.64 2.279 1.393 5.495 3.953 7.111 6.942 2.513 4.648 3.056 10.285 1.574 13.284l-.92-.644c-.114.23-7.375 12.554-7.375 12.554l-7.29-21.241z"/>
            <path fill="#243562" d="M42.396 23.21c-.312-2.425-1.19-4.975-2.54-7.376-1.728-3.073-4.039-5.565-6.507-7.017-2.569-1.51-5.016-1.73-6.893-.617-.16.095-2.233 1.29-3.555 2.086-1.56.945-2.53 2.693-2.807 5.06-.26 2.215.136 4.874 1.113 7.49a.317.317 0 0 0 .005.012l7.752 21.72a.585.585 0 0 0 .546.393.57.57 0 0 0 .289-.08l3.514-2.06a.59.59 0 0 0 .205-.202l7.63-12.494c.169-.235.325-.492.465-.764.823-1.603 1.094-3.73.783-6.15zm-20.084-.994a.54.54 0 0 0-.01-.03c-.917-2.393-1.29-4.807-1.053-6.795.296-2.474 1.4-3.598 2.274-4.106 1.503-.872 3.54-.657 5.733.606 2.293 1.321 4.451 3.609 6.078 6.442 2.528 4.404 3.226 9.273 1.735 12.115-.114.218-7.421 11.896-7.421 11.896l-7.336-20.128z"/>
            <path fill="#FE2765" d="M30.6 24.916c.61-.364.95-1.101.952-2.077.003-.917-.291-1.95-.83-2.91-.538-.96-1.26-1.739-2.032-2.194-.822-.485-1.612-.553-2.223-.19-.611.364-.95 1.102-.953 2.078-.003.916.292 1.95.83 2.91.538.96 1.26 1.739 2.032 2.194.473.28.935.42 1.36.42.312 0 .604-.077.863-.231z"/>
        </g>
        <g transform="translate(118 217)">
            <ellipse cx="32.5" cy="47" fill="#3A00FF" fill-opacity=".603" opacity=".52" rx="32.5" ry="14"/>
            <ellipse cx="32.5" cy="46" fill="#3A00FF" fill-opacity=".603" opacity=".52" rx="20.5" ry="9"/>
            <path fill="#FFF" fill-opacity=".746" d="M22.204 22.092c-.921-2.557-1.293-5.104-1.057-7.203.294-2.61 1.391-3.797 2.26-4.332 1.494-.921 3.517-.694 5.697.64 2.279 1.393 5.495 3.953 7.111 6.942 2.513 4.648 3.056 10.285 1.574 13.284l-.92-.644c-.114.23-7.375 12.554-7.375 12.554l-7.29-21.241z"/>
            <path fill="#243562" d="M42.396 23.21c-.312-2.425-1.19-4.975-2.54-7.376-1.728-3.073-4.039-5.565-6.507-7.017-2.569-1.51-5.016-1.73-6.893-.617-.16.095-2.233 1.29-3.555 2.086-1.56.945-2.53 2.693-2.807 5.06-.26 2.215.136 4.874 1.113 7.49a.317.317 0 0 0 .005.012l7.752 21.72a.585.585 0 0 0 .546.393.57.57 0 0 0 .289-.08l3.514-2.06a.59.59 0 0 0 .205-.202l7.63-12.494c.169-.235.325-.492.465-.764.823-1.603 1.094-3.73.783-6.15zm-20.084-.994a.54.54 0 0 0-.01-.03c-.917-2.393-1.29-4.807-1.053-6.795.296-2.474 1.4-3.598 2.274-4.106 1.503-.872 3.54-.657 5.733.606 2.293 1.321 4.451 3.609 6.078 6.442 2.528 4.404 3.226 9.273 1.735 12.115-.114.218-7.421 11.896-7.421 11.896l-7.336-20.128z"/>
            <path fill="#FE2765" d="M30.6 24.916c.61-.364.95-1.101.952-2.077.003-.917-.291-1.95-.83-2.91-.538-.96-1.26-1.739-2.032-2.194-.822-.485-1.612-.553-2.223-.19-.611.364-.95 1.102-.953 2.078-.003.916.292 1.95.83 2.91.538.96 1.26 1.739 2.032 2.194.473.28.935.42 1.36.42.312 0 .604-.077.863-.231z"/>
        </g>
        <g transform="translate(0 236)">
            <ellipse cx="32.5" cy="47" fill="#3A00FF" fill-opacity=".603" opacity=".52" rx="32.5" ry="14"/>
            <ellipse cx="32.5" cy="46" fill="#3A00FF" fill-opacity=".603" opacity=".52" rx="20.5" ry="9"/>
            <path fill="#FFF" fill-opacity=".746" d="M22.204 22.092c-.921-2.557-1.293-5.104-1.057-7.203.294-2.61 1.391-3.797 2.26-4.332 1.494-.921 3.517-.694 5.697.64 2.279 1.393 5.495 3.953 7.111 6.942 2.513 4.648 3.056 10.285 1.574 13.284l-.92-.644c-.114.23-7.375 12.554-7.375 12.554l-7.29-21.241z"/>
            <path fill="#243562" d="M42.396 23.21c-.312-2.425-1.19-4.975-2.54-7.376-1.728-3.073-4.039-5.565-6.507-7.017-2.569-1.51-5.016-1.73-6.893-.617-.16.095-2.233 1.29-3.555 2.086-1.56.945-2.53 2.693-2.807 5.06-.26 2.215.136 4.874 1.113 7.49a.317.317 0 0 0 .005.012l7.752 21.72a.585.585 0 0 0 .546.393.57.57 0 0 0 .289-.08l3.514-2.06a.59.59 0 0 0 .205-.202l7.63-12.494c.169-.235.325-.492.465-.764.823-1.603 1.094-3.73.783-6.15zm-20.084-.994a.54.54 0 0 0-.01-.03c-.917-2.393-1.29-4.807-1.053-6.795.296-2.474 1.4-3.598 2.274-4.106 1.503-.872 3.54-.657 5.733.606 2.293 1.321 4.451 3.609 6.078 6.442 2.528 4.404 3.226 9.273 1.735 12.115-.114.218-7.421 11.896-7.421 11.896l-7.336-20.128z"/>
            <path fill="#FE2765" d="M30.6 24.916c.61-.364.95-1.101.952-2.077.003-.917-.291-1.95-.83-2.91-.538-.96-1.26-1.739-2.032-2.194-.822-.485-1.612-.553-2.223-.19-.611.364-.95 1.102-.953 2.078-.003.916.292 1.95.83 2.91.538.96 1.26 1.739 2.032 2.194.473.28.935.42 1.36.42.312 0 .604-.077.863-.231z"/>
        </g>
    </g>
</svg>
