<svg xmlns="http://www.w3.org/2000/svg" xmlns:xlink="http://www.w3.org/1999/xlink" width="303" height="305" viewBox="0 0 303 305">
    <defs>
        <path id="a" d="M.876 15.744L6.162 80.44l32.056 18.597 50.968-29.753L92.39.99 33.596 32.484z"/>
        <path id="c" d="M27.824 14.919l3.485 33.88-26.525-16.44L.426.93z"/>
        <linearGradient id="d" x1="317.188%" x2="146.412%" y1="133.925%" y2="16.411%">
            <stop offset="0%" stop-color="#F49C2A" stop-opacity=".183"/>
            <stop offset="100%" stop-color="#FF5900"/>
        </linearGradient>
        <path id="f" d="M.358 27.075L55.41.437 81.47 11.83 27.797 40.865z"/>
        <linearGradient id="g" x1="95.618%" x2="11.654%" y1="10.184%" y2="93.359%">
            <stop offset="0%" stop-color="#F49C2A" stop-opacity=".183"/>
            <stop offset="100%" stop-color="#FF5900"/>
        </linearGradient>
        <linearGradient id="i" x1="191.01%" x2="0%" y1="0%" y2="-164.421%">
            <stop offset="0%" stop-color="#F49C2A" stop-opacity=".183"/>
            <stop offset="100%" stop-color="#FF5900"/>
        </linearGradient>
        <path id="j" d="M29.583 40.537l52.986-28.554V46.48L32.461 73.402z"/>
    </defs>
    <g fill="none" fill-rule="evenodd">
        <path fill="#D1D3D4" d="M195 31l-1.906-.873L193 4l1.906.873zM164 48l-1.896-.876L162 18l1.896.877z"/>
        <path fill="#FFF" d="M163.505 19L162 18.109 194 0h3z"/>
        <path fill="#E6E7E8" d="M197 0v29.183l-2.556 1.462-.075-26.27-27.806 15.894.076 26.27L164.083 48 164 18.817z"/>
        <path fill="#14E1A8" d="M232 27l-60 34.218V160l60-34.216zM167 51.787L152 49v101l15-7.234z"/>
        <path fill="#2EA27B" d="M167 143.348V52l5 8.969V160z"/>
        <path fill="#2EA27B" d="M152 149.995l20-9.875V160z"/>
        <path fill="#FCFCFC" d="M167 52l5.504 9.929L232 27l-14.224-3.898L213.5 14 152 49z"/>
        <path fill="#2EA27B" d="M168.995 50.004l4.994 8.047 54.87-30.84L216 25l-4-8-54.969 31.012z"/>
        <path fill="#38B290" d="M215 25v10l13.9-7.751z"/>
        <path fill="#5BE8C1" d="M212 17v19.623l4-2.067v-9.641z"/>
        <path fill="#38B290" d="M192.479 56.587c3.592-1.364 6.51-.27 6.521 2.445.013 2.714-2.887 6.017-6.479 7.381-3.592 1.364-6.51.27-6.521-2.445-.013-2.714 2.887-6.017 6.479-7.381M222.482 40.534c3.04-1.24 5.509-.245 5.518 2.222.01 2.467-2.443 5.47-5.482 6.71-3.04 1.24-5.509.245-5.518-2.222-.01-2.467 2.443-5.47 5.482-6.71"/>
        <path fill="#FFF" d="M193 36l-4-2 33-19 3 1-1 2z"/>
        <path fill="#D1D3D4" d="M192 64l-3-1V34l3 1z"/>
        <path fill="#E6E7E8" d="M225 16v29.183L222 46V20l-27 16v26l-3 2V35z"/>
        <g>
            <path fill="#84A2AA" d="M293 60l-71 40 7 76 4.158 2.905L303 136.207zM217 89.277L199.345 86 192 155l5 1 20-1 5-26-2-26z"/>
            <path fill="#49616A" d="M217 152.082V90l6 10 9 78z"/>
            <path fill="#49616A" d="M192 155l25.19-3 8.81 5 7 22z"/>
            <path fill="#F7F3F3" d="M217 90l6 10 70-40-17.599-3.315L270.5 46 199 86z"/>
            <path fill="#49616A" d="M219.689 88.14l4.593 7.085 62.775-35.092-14.35-1.932L269 50l-63 35z"/>
            <path fill="#49616A" d="M273 57.372V68l14.25-7.926z"/>
            <path fill="#27393F" d="M269 50v20.21l4-2.028v-10.91z"/>
            <path fill="#49616A" d="M245.489 97.427c1.934-.992 3.505-.196 3.511 1.777.007 1.975-1.555 4.378-3.489 5.37-1.934.991-3.505.195-3.511-1.778-.007-1.975 1.555-4.378 3.489-5.37"/>
            <path fill="#A0C5CF" d="M245.495 99.214c.829-.496 1.502-.1 1.505.888.003.988-.666 2.188-1.495 2.684-.83.496-1.502.1-1.505-.888-.003-.988.666-2.188 1.495-2.684"/>
            <path fill="#49616A" d="M280.488 77.427c1.934-.992 3.505-.196 3.512 1.777.006 1.975-1.555 4.378-3.49 5.37-1.933.991-3.504.195-3.51-1.778-.007-1.975 1.554-4.378 3.488-5.37"/>
            <path fill="#A0C5CF" d="M280.495 79.214c.829-.496 1.502-.1 1.505.888.003.988-.666 2.188-1.495 2.684-.83.496-1.502.1-1.505-.888-.003-.988.666-2.188 1.495-2.684"/>
            <path fill="#D1D3D4" d="M281 104l-1.936-1.032L279 82l1.935 1.031zM246 127l-1.925-1.015L244 102l1.925 1.014z"/>
            <path fill="#E6E7E8" d="M283.932 81l.068 24.123L246.068 127 246 102.877l2.95-1.7.058 20.735 32.037-18.478-.058-20.735z"/>
        </g>
        <g transform="translate(0 89)">
            <g transform="translate(0 45)">
                <mask id="b" fill="#fff">
                    <use xlink:href="#a"/>
                </mask>
                <use fill="#FF6268" xlink:href="#a"/>
                <path fill="#FFF" d="M51.192 68.414c10.493 2.028 33.05-5.87 33.05-17.834 0-11.964-.89-14.067-11.384-12.04-10.494 2.029-19.541 2.731-19.541 10.64 0 7.908-12.619 17.206-2.125 19.234z" mask="url(#b)" opacity=".427" transform="rotate(-22 65.632 53.297)"/>
                <path fill="#FFF" d="M60.597 62.698c6.832 1.32 21.518-3.821 21.518-11.61 0-7.79-.58-9.16-7.412-7.84-6.832 1.321-12.723 1.778-12.723 6.927 0 5.15-8.215 11.203-1.383 12.523z" mask="url(#b)" opacity=".62" transform="rotate(-22 69.998 52.856)"/>
                <path fill="#E6484F" d="M32.9 30.81l6.006 79.978L-9.38 75.624l3.338-66.162z" mask="url(#b)"/>
            </g>
            <g transform="translate(2 26)">
                <mask id="e" fill="#fff">
                    <use xlink:href="#c"/>
                </mask>
                <use fill="#FCAC40" xlink:href="#c"/>
                <path stroke="url(#d)" stroke-width="2" d="M15 5l2 36M7 .516L11 40M22 8l2 37" mask="url(#e)" opacity=".611"/>
            </g>
            <g transform="translate(2)">
                <mask id="h" fill="#fff">
                    <use xlink:href="#f"/>
                </mask>
                <use fill="#FFE593" xlink:href="#f"/>
                <path stroke="url(#g)" stroke-width="2" d="M11.832 36.534L66.579 7M16.723 41.107L75.579 10M5.45 31.865L53.58 7" mask="url(#h)" opacity=".611"/>
                <path stroke="url(#i)" stroke-width="2" d="M6 21l33 16M18 18l40 18M24 11l51 23M37 9l57 25" mask="url(#h)" opacity=".472"/>
                <path stroke="url(#i)" stroke-width="2" d="M44 3l65 29" mask="url(#h)" opacity=".558"/>
            </g>
            <path fill="#FF8C91" d="M.908 60.738l6.086-3.049 26.432 15.344L81.88 44.589l-5.127-3.141V36l16.517 9.974-59.844 34.477z"/>
            <mask id="k" fill="#fff">
                <use xlink:href="#j"/>
            </mask>
            <use fill="#FECF3D" xlink:href="#j"/>
            <path stroke="url(#d)" stroke-width="2" d="M38 31l2 46M47.667 26.075V75M57 24.99V73M65.667 16.064V73M74.667 11.06V72" mask="url(#k)" opacity=".3"/>
        </g>
        <g transform="translate(0 188)">
            <path fill="#FBD493" stroke="#F3B772" stroke-width="3" d="M2.645 52.687L2 61.25c45.287 36.818 72.608 54.722 81.961 53.71 14.03-1.517 88.06-65.229-5.565-114.71-8.445-1.316-12.256 2.582-11.433 11.694L2.645 52.687z"/>
            <path fill="#D8A263" d="M1.276 52l10.6 1.937c49.657 32.264 74.351 51.646 74.083 58.147.631 3.54-6.112 4.916-10.074 4.916C73.243 117 47.948 98.853 0 62.558L1.276 52z"/>
            <path fill="#FBBF5D" stroke="#EEA550" stroke-width="3" d="M12 54.377c35.841 27.745 57.264 41.278 64.268 40.599C86.774 93.957 142.211 51.204 72.101 18 67.307 20.413 47.273 32.538 12 54.377z"/>
            <ellipse cx="65" cy="67.5" fill="#F8EEEE" opacity=".811" rx="11" ry="7.5"/>
            <ellipse cx="56" cy="42.5" fill="#F8EEEE" opacity=".746" rx="11" ry="7.5"/>
            <ellipse cx="52" cy="67.5" fill="#FA6F6F" stroke="#F85C57" stroke-width="3" rx="11" ry="7.5"/>
            <ellipse cx="66.5" cy="35" fill="#FA6F6F" stroke="#F85C57" stroke-width="3" rx="7.5" ry="5"/>
            <ellipse cx="41" cy="42.5" fill="#FA6F6F" stroke="#F85C57" stroke-width="3" rx="11" ry="7.5"/>
            <path fill="#FCFCFC" d="M63 94.781c13.606 5.752 20.66 11.66 21.16 17.726.448 1.143 2.395.299 5.84-2.532C85.96 99.908 78.387 93.916 67.282 92c-2.603.085-4.03 1.012-4.282 2.781z" opacity=".479"/>
            <ellipse cx="88" cy="43.5" fill="#F8EEEE" opacity=".27" rx="11" ry="7.5"/>
            <ellipse cx="89" cy="52.5" fill="#FA6F6F" stroke="#F85C57" stroke-width="3" rx="11" ry="7.5"/>
        </g>
    </g>
</svg>
